<svg xmlns="http://www.w3.org/2000/svg" width="44.627" height="48.29" viewBox="0 0 44.627 48.29">
  <g id="Group_1273" data-name="Group 1273" transform="translate(-367.052 -3632.001)">
    <path id="Path_700" data-name="Path 700" d="M438.277,610.711V605.76a53.242,53.242,0,0,1,6.23-16.774h9.585a141.179,141.179,0,0,0-15.814,21.725Z" transform="translate(-71.168 3047.455)" fill="#ffb016" fill-rule="evenodd"/>
    <path id="Path_701" data-name="Path 701" d="M438.337,614.618h22.5a69.247,69.247,0,0,0-7.109-4.314l6.79-2a44.651,44.651,0,0,0-9.584-1.916l5.75-4.156a33.639,33.639,0,0,0-9.424,1.758l3.992-6.31c-3.293,1.254-6.932,2.643-9.164,4.744l-.678.269-3.154,3.293.077,8.628Z" transform="translate(-71.207 3065.673)" fill="#ffb016" fill-rule="evenodd"/>
    <path id="Path_702" data-name="Path 702" d="M438.28,609.407v-5.669c2.145-2.943,4.156-5.685,6.3-6.923l-2.3,7.563-4,5.029Z" transform="translate(-71.162 3063.853)" fill="#f57629" fill-rule="evenodd"/>
    <path id="Path_703" data-name="Path 703" d="M466.628,607.243v-4.234c-7-1.922-13.818-1.971-20.608-1.758,4.589,1.653,9.315,3.095,13.02,6.072l7.588-.081Z" transform="translate(-54.949 3072.967)" fill="#ffb016" fill-rule="evenodd"/>
    <path id="Path_704" data-name="Path 704" d="M444.678,603.207a84.523,84.523,0,0,1,24.442,2.077v-8.065c-10.711.016-18.42,2.352-24.442,5.988Z" transform="translate(-57.76 3064.701)" fill="#ffb016" fill-rule="evenodd"/>
    <path id="Path_705" data-name="Path 705" d="M442.845,608.262c8.919-4.141,19.092-6.406,29.716-7.988v-7.907a50.077,50.077,0,0,0-29.716,15.895Z" transform="translate(-61.6 3054.537)" fill="#ffb016" fill-rule="evenodd"/>
    <path id="Path_706" data-name="Path 706" d="M440.548,615.072c5.976-4.6,11.952-8.715,17.925-12.509,4.41-2.8,8.288-5.082,12.026-8.77,6.567-6.483,4.583-7.421-2.479-5.063a35.2,35.2,0,0,0-11.581,6.112,53.143,53.143,0,0,0-15.892,20.231Z" transform="translate(-66.412 3044.449)" fill="#f57629" fill-rule="evenodd"/>
  </g>
</svg>
